<svg xmlns="http://www.w3.org/2000/svg" xmlns:xlink="http://www.w3.org/1999/xlink" width="500" height="630" viewBox="0 0 500 630">
  <defs>
    <clipPath id="clip-logo-black">
      <rect width="500" height="630"/>
    </clipPath>
  </defs>
  <g id="logo-black" clip-path="url(#clip-logo-black)">
    <g id="logo-white" transform="translate(-6.01 -2.27)">
      <g id="Gruppe_13" data-name="Gruppe 13" transform="translate(4.49 3.675)">
        <g id="Gruppe_2" data-name="Gruppe 2">
          <path id="Pfad_1" data-name="Pfad 1" d="M13.01,162.73V312.19L131.7,237.47l118.71-74.74L131.7,87.99,13.01,13.27Z" fill="rgba(0,0,0,0)" stroke="#2e2e2e" stroke-width="1"/>
          <g id="Gruppe_1" data-name="Gruppe 1">
            <path id="Pfad_2" data-name="Pfad 2" d="M13.01,162.73V312.19L131.7,237.47l118.71-74.74L131.7,87.99,13.01,13.27Z" fill="rgba(0,0,0,0)" stroke="#2e2e2e" stroke-width="10"/>
          </g>
        </g>
        <g id="Gruppe_4" data-name="Gruppe 4">
          <path id="Pfad_3" data-name="Pfad 3" d="M32.7,162.73V275.6l89.63-56.42,89.65-56.45-89.65-56.45L32.7,49.85Z" fill="#5d5ab7" stroke="#2e2e2e" stroke-width="1"/>
          <g id="Gruppe_3" data-name="Gruppe 3">
            <path id="Pfad_4" data-name="Pfad 4" d="M32.7,162.73V275.6l89.63-56.42,89.65-56.45-89.65-56.45L32.7,49.85Z" fill="#5d5ab7" stroke="#2e2e2e" stroke-width="10"/>
          </g>
        </g>
        <g id="Gruppe_6" data-name="Gruppe 6">
          <path id="Pfad_5" data-name="Pfad 5" d="M33.7,464.46V577.34l89.63-56.43,89.65-56.45-89.65-56.45L33.7,351.59Z" fill="#3f486b" stroke="#2e2e2e" stroke-width="1"/>
          <g id="Gruppe_5" data-name="Gruppe 5">
            <path id="Pfad_6" data-name="Pfad 6" d="M33.7,464.46V577.34l89.63-56.43,89.65-56.45-89.65-56.45L33.7,351.59Z" fill="rgba(0,0,0,0)" stroke="#2e2e2e" stroke-width="10"/>
          </g>
        </g>
        <g id="Gruppe_8" data-name="Gruppe 8">
          <path id="Pfad_7" data-name="Pfad 7" d="M13.01,464.46V613.92L131.7,539.2l118.71-74.74L131.7,389.72,13.01,315Z" fill="rgba(63,72,107,0)" stroke="#2e2e2e" stroke-width="1"/>
          <g id="Gruppe_7" data-name="Gruppe 7">
            <path id="Pfad_8" data-name="Pfad 8" d="M13.01,464.46V613.92L131.7,539.2l118.71-74.74L131.7,389.72,13.01,315Z" fill="rgba(63,72,107,0)" stroke="#2e2e2e" stroke-width="10"/>
          </g>
        </g>
        <g id="Gruppe_10" data-name="Gruppe 10">
          <path id="Pfad_9" data-name="Pfad 9" d="M250.41,313.59V464.46l119.8-75.42,119.82-75.45L370.21,238.15l-119.8-75.42Z" fill="rgba(0,0,0,0)" stroke="#2e2e2e" stroke-width="1"/>
          <g id="Gruppe_9" data-name="Gruppe 9">
            <path id="Pfad_10" data-name="Pfad 10" d="M250.41,313.59V464.46l119.8-75.42,119.82-75.45L370.21,238.15l-119.8-75.42Z" fill="rgba(0,0,0,0)" stroke="#2e2e2e" stroke-width="10"/>
          </g>
        </g>
        <g id="Gruppe_12" data-name="Gruppe 12">
          <path id="Pfad_11" data-name="Pfad 11" d="M272.31,315V427.88l89.63-56.43L451.59,315l-89.65-56.45-89.63-56.43Z" fill="#fdad0d" stroke="#2e2e2e" stroke-width="1"/>
          <g id="Gruppe_11" data-name="Gruppe 11">
            <path id="Pfad_12" data-name="Pfad 12" d="M272.31,315V427.88l89.63-56.43L451.59,315l-89.65-56.45-89.63-56.43Z" fill="rgba(0,0,0,0)" stroke="#2e2e2e" stroke-width="10"/>
          </g>
        </g>
      </g>
    </g>
  </g>
</svg>
